<svg preserveAspectRatio="xMidYMid meet" data-bbox="11 68.999 178 62" viewBox="11 68.999 178 62" height="200" width="200" xmlns="http://www.w3.org/2000/svg" data-type="color" role="presentation" aria-hidden="true"><defs><style>#comp-je7gr7jr svg [data-color="1"] {fill: #222A31;}</style></defs>
    <g>
        <path d="M188.794 81.991c-.641-.319-2.965 1.366-3.633 1.608-1.214.439-1.413.904-2.826 1.507-4.825 2.059-9.908 3.958-14.886 5.626-3.706 1.241-7.477 2.186-11.341 2.337-3.653.143-7.328.439-10.971-.987-2.773-1.085-5.871-1.35-8.829-1.962-3.482-.721-6.944-1.58-10.457-2.096-5.719-.841-10.904 1.26-15.999 3.424-2.753 1.169-5.451 2.12-8.499 1.501-2.106-.428-4.225-1.008-6.351-1.073-5.145-.156-10.298-.051-15.447-.051v.05c-5.04 0-10.082-.078-15.12.021-5.605.11-10.767-1.727-15.49-4.253-3.535-1.89-7.021-4.657-5.969-9.787.236-1.149.081-2.398-.019-3.591-.18-2.142-1.215-2.568-3-1.283-1.579 1.137-3.117 2.335-4.725 3.43-.587.4-1.543 1.004-1.957.792-2.293-1.174-5.424-.938-6.584-4.137-.503-1.386-1.771-4.546-3.611-4.007 0 0-1.331 6.001-1.262 7.203.088 1.537-1.859 2.497-2.119 3.919-.521 2.842-.039 4.069-2.003 6.407-1.07 1.274-2.678 2.088-3.84 3.303-.603.631-3.114 1.796-2.834 2.305.503.915.734 1.713 1.755 1.964 1.45.357 5.753-.189 7.282-.261 4.818-.226 8.26 3.304 11.31 6.249 2.674 2.581 4.572 5.978 6.683 9.102.38.563.481 1.858.105 2.274-.913 1.011-2.068 2.049-3.328 2.458-3.371 1.095-6.879 1.764-10.272 2.799-2.274.694-4.521 1.659-5.922 3.733-.407.602-.642 1.62-.407 2.242.152.403 1.295.564 2.002.585.481.014 1.098-.285 1.442-.644 1.491-1.557 3.352-1.874 5.382-1.876.746-.001 1.492-.264 2.237-.41 3.477-.68 6.954-1.361 10.431-2.037.105-.02.234-.032.325.009.264.12.515.269.77.407-.224.184-.424.415-.676.546-3.447 1.786-6.97 3.439-10.324 5.383-1.753 1.016-3.296 2.451-4.748 3.883-.455.449-.302 1.507-.428 2.287.798.001 1.731.272 2.371-.045 2.7-1.338 5.419-2.595 8.188-3.798 4.44-1.928 8.91-3.218 13.7-3.575.425-.032.847-.206 1.255-.354 6.982-2.534 13.448-6.332 20.635-8.364 3.52-.995 7.016-2.117 10.591-2.852 1.224-.252 2.81.22 3.961.849 2.262 1.237 4.244 2.983 6.511 4.207 2.46 1.327 5.038 2.541 7.7 3.369 4.008 1.247 8.092 2.686 12.223 2.996 4.769.357 8.886 1.549 12.517 4.621.53.448 4.884.589 5.256.265.736-.64.019-2.519-.202-3.215-.6-1.894-3.906-1.157-5.954-2.311-3.347-1.886-5.993-3.269-9.486-4.476-1.689-.584-3.511-.661-4.774-2.135 1.713-.557 3.389-1.353 5.146-1.623 4.247-.651 8.2.409 11.874 2.588 1.208.717 2.408 1.479 3.694 2.026 1.676.713 3.404 1.366 5.173 1.766.676.153 1.528-.468 2.301-.736-.378-.831.42-2.371-.202-2.936-1.427-1.297-3.798-.507-5.45-1.507-4.438-2.687-8.941-7.154-14.545-6.856-2.767.147-5.224-1.089-7.722-2.109-1.213-.495-2.093-1.142-2.316-2.462-.107-.637-.402-1.683-.144-1.857.715-.481 1.736-.928 2.524-.784 1.015.186 1.916.97 2.876 1.479 4.486 2.379 8.803 5.245 14.247 4.854.418-.03.851.156 1.279.232 4.015.713 8.01 1.585 12.052 2.088 3.69.459 7.318-.536 10.975-.942 3.198-.355 6.202-1.07 9.048-2.36 6.036-2.737 11.727-6.029 16.372-10.893 3.603-3.773 7.349-7.41 10.986-11.152 1.3-1.333 2.098-2.595 1.493-2.897zM31.202 95.45c-.205.106-.422.01-.612-.137-.174-.134-.471-.186-.666-.311-.27-.173-.255-.484-.017-.644.414-.277.809-.321 1.112-.098.259.19.483.405.776.653-.233.22-.369.421-.593.537zm8.494-15.83c-.019.026-.074.026-.111.037-.156-.381-.143-.425.188-.624.062.21.052.407-.077.587zm5.268 33.823c-.293.108-.604.171-.912.237-.083.018-.173 0-.26-.002v.008l-.008-.008a.02.02 0 0 1 .008.001v-.64c.094-.085.111-.114.127-.113.339.026.681.041 1.013.104.039.007.071.399.032.413zm.145-10.127v-.651l.232-.008.03.655-.262.004zm5.579 8.633l-.208-.006v-.643l.25.007-.042.642zm4.431-11.448c-.061-.004-.129-.083-.165-.146-.012-.02.062-.128.102-.132.067-.007.139.038.284.085-.112.104-.17.196-.221.193zm2.485 14.385c-.068-.039-.188-.071-.194-.119-.011-.082.047-.174.096-.323.119.098.232.153.228.194-.01.087-.083.166-.13.248zm4.897-19.718l.642-.786.206.068.038.781-.886-.063zm7.345 18.866l-.017-.238.643-.048.017.254-.643.032zm.532-10.297c-.142.064-.425.074-.492-.01a.667.667 0 0 1-.088-.549c.106-.305.299-.579.515-.975l.527.032c.09.323-.227 1.395-.462 1.502zm.845 3.852c-.118-.097-.231-.153-.226-.194a.414.414 0 0 1 .138-.235c.018-.016.179.063.185.11.012.082-.047.172-.097.319zm2.976 2.309h-.654l-.006-.2h.663l-.003.2zm.169-2.016v-.262h.634l.009.227-.643.035zm20.974-10.058c-.116.316-.34.592-.571.969-.369-.481-.236-.951-.112-1.385.03-.105.367-.123.563-.181.046.202.179.435.12.597zm7.321 10.579c-.316-.384-.885-.574-.463-1.303.356.412.882.638.463 1.303zm21.905 14.699c-.536.19-1.019.382-1.516.53-.355.105-.47-.073-.459-.643 1.466-.602 1.466-.602 1.975.113zm2.185-23.404c-.135.063-.246.178-.413.302a865.74 865.74 0 0 1-.452-1.011c.075-.161.178-.358.26-.562.192-.473.479-.544.849-.203.672.618.592 1.081-.244 1.474zm34.666 3.631c-1.207.588-12.966 3.015-14.36 3.22-.005-.065 4.132-1.483 4.127-1.547.148-1.727-5.692-.314-6.593-.581-.86-.255 3.228-2.331 3.289-2.456.897-1.826-2.337-1.219-3.201-2.357-.128-.169 3.116-.401 3.365-.589.66-.5-1.626-1.579-.867-1.665 4.615-.52 9.252-.848 13.869-1.354 1.566-.172 3.089-.706 4.645-1.004.489-.094 13.191-5.666 13.704-5.635-1.638 2.912-13.583 11.827-17.978 13.968z" fill="#861802" data-color="1"></path>
    </g>
</svg>